# xmcd
#
# Track frame offsets: 
#        150
#        5770
#        21695
#        38180
#        42400
#        65710
#        78832
#        95460
#        114407
#        131295
#        142435
#        162860
#        181715
#        200362
#        224200
#        243982
#        274727
#
# Disc length: 4263 seconds
#
# Revision: 3
# Processed by: cddbd v1.5.2PL0 Copyright (c) Steve Scherf et al.
# Submitted via: ExactAudioCopy v0.99pb5
#
DISCID=fd10a511
DTITLE=Vance Gilbert - Somerville Live
DYEAR=1900
DGENRE=
TTITLE0=Introduction
TTITLE1=Icarus by Night
TTITLE2=Watching a Good Thing Burn
TTITLE3=Alan Lomax's Children
TTITLE4=If These Teardrops Had Wings
TTITLE5=Teletubbies
TTITLE6=I Met Ellis Paul.....
TTITLE7=Taking It All to Tennessee
TTITLE8=High Rise
TTITLE9=Utilitarian Church
TTITLE10=Could You believe?
TTITLE11=Charlene
TTITLE12=Why Are We So Cruel
TTITLE13=Pablo's Lights
TTITLE14=Imagination
TTITLE15=When Jimmy Falls in Love
TTITLE16=Enhanced CD Data
EXTD=
EXTT0=
EXTT1=
EXTT2=
EXTT3=
EXTT4=
EXTT5=
EXTT6=
EXTT7=
EXTT8=
EXTT9=
EXTT10=
EXTT11=
EXTT12=
EXTT13=
EXTT14=
EXTT15=
EXTT16=
PLAYORDER=
